<?xml version="1.0" standalone="no"?>
<!DOCTYPE svg PUBLIC "-//W3C//DTD SVG 20010904//EN"
 "http://www.w3.org/TR/2001/REC-SVG-20010904/DTD/svg10.dtd">
<svg version="1.0" xmlns="http://www.w3.org/2000/svg"
 width="128.000000pt" height="128.000000pt" viewBox="0 0 128.000000 128.000000"
 preserveAspectRatio="xMidYMid meet">
<metadata>
Created by potrace 1.14, written by Peter Selinger 2001-2017
</metadata>
<g transform="translate(0.000000,128.000000) scale(0.100000,-0.100000)"
fill="#000000" stroke="none">
<path d="M324 1030 l-50 -5 1 -260 c1 -378 -21 -358 384 -353 262 3 280 4 301
23 29 26 42 51 47 94 6 40 17 51 51 51 29 0 89 31 125 65 87 83 88 232 1 318
-63 62 -56 62 -449 67 -198 3 -383 3 -411 0z m765 -108 c62 -31 86 -107 57
-177 -17 -40 -50 -64 -100 -72 l-36 -6 0 137 c0 134 0 136 23 136 12 0 37 -8
56 -18z"/>
<path d="M6 353 c8 -39 35 -73 70 -92 27 -15 91 -16 571 -16 494 1 542 2 566
18 31 20 52 51 61 90 l6 27 -640 0 -640 0 6 -27z"/>
</g>
</svg>
